HIERARCHY
ROOT Pelvis
{
	OFFSET 0.000000 0.000000 0.000000
	CHANNELS 6 Xposition Yposition Zposition Xrotation Yrotation Zrotation
	JOINT LeftUpLeg_virtual
	{
		OFFSET 0.000000 0.000000 0.000000
		CHANNELS 3 Xrotation Yrotation Zrotation
		JOINT LeftUpLeg
		{
			OFFSET 18.735201 -5.666702 -4.541200
			CHANNELS 3 Xrotation Yrotation Zrotation
			JOINT LeftLeg
			{
				OFFSET -0.021200 -31.938179 0.493100
				CHANNELS 3 Xrotation Yrotation Zrotation
				JOINT LeftFoot
				{
					OFFSET 0.021200 -31.938179 -4.336299
					CHANNELS 3 Xrotation Yrotation Zrotation
					JOINT LeftToeBase
					{
						OFFSET 0.943001 -26.722000 15.023500
						CHANNELS 3 Xrotation Yrotation Zrotation
						End Site
						{
							OFFSET 0 0 0
						}
					}
				}
			}
		}
	}
	JOINT RightUpLeg_virtual
	{
		OFFSET 0.000000 0.000000 0.000000
		CHANNELS 3 Xrotation Yrotation Zrotation
		JOINT RightUpLeg
		{
			OFFSET -18.735201 -5.666702 -4.541200
			CHANNELS 3 Xrotation Yrotation Zrotation
			JOINT RightLeg
			{
				OFFSET 0.018946 -31.938133 0.493100
				CHANNELS 3 Xrotation Yrotation Zrotation
				JOINT RightFoot
				{
					OFFSET -0.018946 -31.938126 -4.336299
					CHANNELS 3 Xrotation Yrotation Zrotation
					JOINT RightToeBase
					{
						OFFSET -0.943001 -26.722004 15.023500
						CHANNELS 3 Xrotation Yrotation Zrotation
						End Site
						{
							OFFSET 0 0 0
						}
					}
				}
			}
		}
	}
	JOINT Hips_virtual
	{
		OFFSET 0.000000 0.000000 0.000000
		CHANNELS 3 Xrotation Yrotation Zrotation
		JOINT Hips
		{
			OFFSET -0.000000 -0.000000 -0.000000
			CHANNELS 3 Xrotation Yrotation Zrotation
			JOINT Spine
			{
				OFFSET 0.000000 10.199997 -0.299500
				CHANNELS 3 Xrotation Yrotation Zrotation
				JOINT Spine1
				{
					OFFSET 0.000000 11.900002 -1.516600
					CHANNELS 3 Xrotation Yrotation Zrotation
					JOINT Spine2
					{
						OFFSET 0.000000 13.600006 -2.842500
						CHANNELS 3 Xrotation Yrotation Zrotation
						JOINT Neck_virtual
						{
							OFFSET 0.000000 0.000000 0.000000
							CHANNELS 3 Xrotation Yrotation Zrotation
							JOINT Neck
							{
								OFFSET 0.000000 9.624100 -2.890100
								CHANNELS 3 Xrotation Yrotation Zrotation
								JOINT Head
								{
									OFFSET 0.000000 14.068802 -1.351900
									CHANNELS 3 Xrotation Yrotation Zrotation
									End Site
									{
										OFFSET 0 0 0
									}
								}
							}
						}
						JOINT LeftShoulder_virtual
						{
							OFFSET 0.000000 0.000000 0.000000
							CHANNELS 3 Xrotation Yrotation Zrotation
							JOINT LeftShoulder
							{
								OFFSET 15.263000 10.923401 -0.547700
								CHANNELS 3 Xrotation Yrotation Zrotation
								JOINT LeftArm
								{
									OFFSET 25.438599 -2.830597 -13.032500
									CHANNELS 3 Xrotation Yrotation Zrotation
									JOINT LeftForeArm
									{
										OFFSET 29.960503 0.000000 0.000000
										CHANNELS 3 Xrotation Yrotation Zrotation
										JOINT LeftHand
										{
											OFFSET 27.849251 0.000000 0.000000
											CHANNELS 3 Xrotation Yrotation Zrotation
											End Site
											{
												OFFSET 0 0 0
											}
										}
									}
								}
							}
						}
						JOINT RightShoulder_virtual
						{
							OFFSET 0.000000 0.000000 0.000000
							CHANNELS 3 Xrotation Yrotation Zrotation
							JOINT RightShoulder
							{
								OFFSET -15.263000 10.923401 -0.547700
								CHANNELS 3 Xrotation Yrotation Zrotation
								JOINT RightArm
								{
									OFFSET -25.438599 -2.830597 -13.032500
									CHANNELS 3 Xrotation Yrotation Zrotation
									JOINT RightForeArm
									{
										OFFSET -29.960503 0.000000 0.000000
										CHANNELS 3 Xrotation Yrotation Zrotation
										JOINT RightHand
										{
											OFFSET -27.849251 0.000000 0.000000
											CHANNELS 3 Xrotation Yrotation Zrotation
											End Site
											{
												OFFSET 0 0 0
											}
										}
									}
								}
							}
						}
					}
				}
			}
		}
	}
}
MOTION
Frames: 5
Frame Time: 0.03333333
-3.480051 91.118660 0.970463 0.000000 0.000000 0.000000 -6.266290 -26.191211 1.607540 -16.802156 9.299688 11.362989 34.267868 9.030104 1.585179 -1.195861 19.486566 -12.233530 0.000000 0.000000 0.000000 -6.266290 -26.191211 1.607540 -5.936923 -33.807510 -13.039884 37.803676 7.623743 -6.552869 -29.138267 -20.729928 4.937877 0.000000 0.000000 0.000000 -6.266290 -26.191211 1.607540 0.000000 -0.000001 0.000000 5.563753 -2.843938 -2.379896 1.469060 -2.839395 -0.460261 0.000000 0.000000 0.000000 1.463317 -2.694939 0.220314 -0.359223 0.074621 -1.087029 0.000000 0.000000 0.000000 1.463317 -2.694939 0.220314 -0.595444 -16.332003 -20.041821 12.420920 10.550268 -35.769718 -179.999786 -83.608182 -179.999786 0.000000 0.000000 0.000000 1.463317 -2.694939 0.220314 0.930387 18.037672 10.376102 6.836817 30.018927 41.382863 179.998680 85.726483 -179.998735 0.000000 0.000000 0.000000 
-3.847045 91.201477 1.064247 0.000000 0.000000 0.000000 -6.320443 -26.890491 1.507489 -16.807992 9.253238 11.527969 34.694841 8.830997 1.598043 -0.726685 20.214119 -12.016911 0.000000 0.000000 0.000000 -6.320443 -26.890491 1.507489 -5.466749 -33.529245 -12.646629 37.339087 7.611211 -6.535072 -29.042839 -20.374552 4.847669 0.000000 0.000000 0.000000 -6.320443 -26.890491 1.507489 0.000000 -0.000001 0.000000 5.592364 -2.727535 -2.362979 1.469656 -2.769740 -0.466833 0.000000 0.000000 0.000000 1.463645 -2.627372 0.198466 -0.357684 0.092772 -1.066239 0.000000 0.000000 0.000000 1.463645 -2.627372 0.198466 -0.595444 -16.332003 -20.041821 11.979360 10.162492 -35.915409 -179.999554 -83.748904 -179.999582 0.000000 0.000000 0.000000 1.463645 -2.627372 0.198466 0.928819 18.095135 10.321579 7.039707 29.557388 41.115048 179.999527 85.245603 -179.999609 0.000000 0.000000 0.000000 
-4.198405 91.286018 1.155073 0.000000 0.000000 0.000000 -6.376193 -27.589593 1.405920 -16.702352 9.223867 11.686477 34.972566 8.724026 1.607928 -0.263649 20.853833 -11.892672 0.000000 0.000000 0.000000 -6.376193 -27.589593 1.405920 -5.005309 -33.210811 -12.263769 36.866755 7.541518 -6.513444 -28.920285 -20.001391 4.794076 0.000000 0.000000 0.000000 -6.376193 -27.589593 1.405920 0.000000 0.000000 0.000000 5.618891 -2.599858 -2.346400 1.470253 -2.697861 -0.473616 0.000000 0.000000 0.000000 1.463942 -2.557627 0.176189 -0.351328 0.113985 -1.041038 0.000000 0.000000 0.000000 1.463942 -2.557627 0.176189 -0.595444 -16.331997 -20.041819 11.555121 9.778309 -36.062299 -179.999582 -83.889708 -179.999554 0.000000 0.000000 0.000000 1.463942 -2.557627 0.176189 0.926479 18.152628 10.275618 7.261005 29.087539 40.849162 179.999486 84.752484 -179.999513 0.000000 0.000000 0.000000 
-4.541414 91.373817 1.243816 0.000000 0.000000 0.000000 -6.433602 -28.288371 1.303511 -16.654247 9.208511 11.786775 35.160567 8.706704 1.612369 0.177993 21.177123 -11.776268 0.000000 0.000000 0.000000 -6.433602 -28.288371 1.303511 -4.542048 -32.860692 -11.886387 36.376003 7.422906 -6.485949 -28.773630 -19.610631 4.768997 0.000000 0.000000 0.000000 -6.433602 -28.288371 1.303511 0.000000 0.000001 0.000000 5.643882 -2.463699 -2.330258 1.470858 -2.625026 -0.480489 0.000000 0.000000 0.000000 1.464210 -2.487010 0.153857 -0.340525 0.137836 -1.011800 0.000000 0.000000 0.000000 1.464210 -2.487010 0.153857 -0.595443 -16.332002 -20.041821 11.157885 9.410630 -36.208964 -179.999663 -84.026141 -179.999677 0.000000 0.000000 0.000000 1.464210 -2.487010 0.153857 0.923532 18.206699 10.240311 7.499875 28.626701 40.584649 179.999554 84.259358 -179.999582 0.000000 0.000000 0.000000 
-4.831301 91.465263 1.331432 0.000000 0.000000 0.000000 -6.492623 -28.983279 1.200272 -16.883183 9.203200 11.753746 35.398193 8.736492 1.608069 0.562377 21.035540 -11.523282 0.000000 0.000000 0.000000 -6.492623 -28.983279 1.200272 -4.137282 -32.462168 -11.567713 35.900567 7.257079 -6.451824 -28.579533 -19.209789 4.795641 0.000000 0.000000 0.000000 -6.492623 -28.983279 1.200272 0.000000 0.000001 0.000000 5.661200 -2.288125 -2.315170 1.471477 -2.547691 -0.487785 0.000000 0.000000 0.000000 1.464451 -2.412450 0.130488 -0.320654 0.166069 -0.975251 0.000000 0.000000 0.000000 1.464451 -2.412450 0.130488 -0.595444 -16.332002 -20.041819 10.825688 9.127635 -36.348849 -179.999937 -84.145526 -179.999923 0.000000 0.000000 0.000000 1.464451 -2.412450 0.130488 0.917853 18.249080 10.245465 7.737186 28.253508 40.318129 179.999732 83.844035 -179.999745 0.000000 0.000000 0.000000 
